<svg width="52" height="21" viewBox="0 0 52 21" fill="none" xmlns="http://www.w3.org/2000/svg">
<g filter="url(#filter0_d_104_4032)">
<path d="M49.5391 15.5H50.0391V15V3.79688V3.29688H49.5391H47.2969H46.7969V3.79688V9.33528L43.4081 3.54434L43.2633 3.29688H42.9766H40.5781H40.0781V3.79688V15V15.5H40.5781H42.8203H43.3203V15V9.46772L46.7092 15.2527L46.8541 15.5H47.1406H49.5391Z" fill="white" stroke="black"/>
<path d="M39.0078 15.5H39.5078V15V12.7578V12.2578H39.0078H34.0703V11.0234H37.25H37.75V10.5234V8.28125V7.78125H37.25H34.0703V6.53906H39.0078H39.5078V6.03906V3.79688V3.29688H39.0078H31.3281H30.8281V3.79688V15V15.5H31.3281H39.0078Z" fill="white" stroke="black"/>
<mask id="path-3-outside-1_104_4032" maskUnits="userSpaceOnUse" x="11.4375" y="1" width="22" height="15" fill="black">
<rect fill="white" x="11.4375" y="1" width="22" height="15"/>
<path fill-rule="evenodd" clip-rule="evenodd" d="M26.5703 15L31.1172 2H28.5547L25.4453 11.2734L23.2109 3.79688H22.1172H20.6641H12.4375V15H20.1172V12.7578H14.6797V10.5234H18.3594V8.28125H14.6797V6.03906H21.3974L24.3281 15H26.5703Z"/>
</mask>
<path fill-rule="evenodd" clip-rule="evenodd" d="M26.5703 15L31.1172 2H28.5547L25.4453 11.2734L23.2109 3.79688H22.1172H20.6641H12.4375V15H20.1172V12.7578H14.6797V10.5234H18.3594V8.28125H14.6797V6.03906H21.3974L24.3281 15H26.5703Z" fill="white"/>
<path d="M31.1172 2L32.0611 2.33015L32.5263 1H31.1172V2ZM26.5703 15V16H27.28L27.5142 15.3301L26.5703 15ZM28.5547 2V1H27.8353L27.6066 1.6821L28.5547 2ZM25.4453 11.2734L24.4872 11.5598L25.3905 14.5825L26.3934 11.5913L25.4453 11.2734ZM23.2109 3.79688L24.1691 3.51054L23.9558 2.79688H23.2109V3.79688ZM12.4375 3.79688V2.79688H11.4375V3.79688H12.4375ZM12.4375 15H11.4375V16H12.4375V15ZM20.1172 15V16H21.1172V15H20.1172ZM20.1172 12.7578H21.1172V11.7578H20.1172V12.7578ZM14.6797 12.7578H13.6797V13.7578H14.6797V12.7578ZM14.6797 10.5234V9.52344H13.6797V10.5234H14.6797ZM18.3594 10.5234V11.5234H19.3594V10.5234H18.3594ZM18.3594 8.28125H19.3594V7.28125H18.3594V8.28125ZM14.6797 8.28125H13.6797V9.28125H14.6797V8.28125ZM14.6797 6.03906V5.03906H13.6797V6.03906H14.6797ZM21.3974 6.03906L22.3478 5.72821L22.1225 5.03906H21.3974V6.03906ZM24.3281 15L23.3777 15.3109L23.6031 16H24.3281V15ZM30.1733 1.66985L25.6264 14.6699L27.5142 15.3301L32.0611 2.33015L30.1733 1.66985ZM28.5547 3H31.1172V1H28.5547V3ZM26.3934 11.5913L29.5028 2.3179L27.6066 1.6821L24.4972 10.9555L26.3934 11.5913ZM22.2528 4.08321L24.4872 11.5598L26.4034 10.9871L24.1691 3.51054L22.2528 4.08321ZM22.1172 4.79688H23.2109V2.79688H22.1172V4.79688ZM20.6641 4.79688H22.1172V2.79688H20.6641V4.79688ZM12.4375 4.79688H20.6641V2.79688H12.4375V4.79688ZM13.4375 15V3.79688H11.4375V15H13.4375ZM20.1172 14H12.4375V16H20.1172V14ZM19.1172 12.7578V15H21.1172V12.7578H19.1172ZM14.6797 13.7578H20.1172V11.7578H14.6797V13.7578ZM13.6797 10.5234V12.7578H15.6797V10.5234H13.6797ZM18.3594 9.52344H14.6797V11.5234H18.3594V9.52344ZM17.3594 8.28125V10.5234H19.3594V8.28125H17.3594ZM14.6797 9.28125H18.3594V7.28125H14.6797V9.28125ZM13.6797 6.03906V8.28125H15.6797V6.03906H13.6797ZM21.3974 5.03906H14.6797V7.03906H21.3974V5.03906ZM25.2786 14.6891L22.3478 5.72821L20.4469 6.34992L23.3777 15.3109L25.2786 14.6891ZM26.5703 14H24.3281V16H26.5703V14Z" fill="black" mask="url(#path-3-outside-1_104_4032)"/>
<path d="M11 3.79688V3.29688H10.5H5.35938C4.83031 3.29688 4.32706 3.39834 3.85489 3.60415C3.39244 3.80573 2.98324 4.08309 2.63082 4.43551C2.28284 4.78349 2.00841 5.19034 1.80728 5.65177C1.60146 6.12394 1.5 6.62718 1.5 7.15625C1.5 7.68534 1.60146 8.19033 1.80635 8.66641L1.80635 8.66641L1.80728 8.66854C2.00808 9.12921 2.28165 9.53745 2.62781 9.88958L2.62776 9.88963L2.63386 9.89562C2.98599 10.2418 3.39423 10.5154 3.85489 10.7162C4.32706 10.922 4.83031 11.0234 5.35938 11.0234H7.60156C7.69514 11.0234 7.77427 11.0403 7.84424 11.0699C7.9179 11.101 7.97761 11.1428 8.02813 11.1959L8.03696 11.2052L8.04625 11.2141C8.09942 11.2646 8.14117 11.3243 8.17233 11.3979C8.20193 11.4679 8.21875 11.5471 8.21875 11.6406C8.21875 11.7342 8.20193 11.8133 8.17233 11.8833C8.14018 11.9593 8.0958 12.0252 8.03707 12.0839C7.98593 12.1351 7.92341 12.1779 7.84424 12.2114C7.77427 12.241 7.69514 12.2578 7.60156 12.2578H2.625H2.125V12.7578V15V15.5H2.625H7.60156C8.13023 15.5 8.63312 15.3987 9.10498 15.1932C9.57132 14.9923 9.98135 14.7179 10.3301 14.3692C10.683 14.0163 10.9582 13.6062 11.1547 13.1426C11.3598 12.6712 11.4609 12.1688 11.4609 11.6406C11.4609 11.1129 11.36 10.6108 11.1552 10.1397C10.9592 9.67178 10.6842 9.26096 10.3301 8.91208C9.98125 8.55798 9.57042 8.28296 9.10248 8.08698C8.63135 7.8822 8.1293 7.78125 7.60156 7.78125H5.35938C5.2658 7.78125 5.18667 7.76443 5.11669 7.73483C5.03953 7.70218 4.97366 7.65973 4.91625 7.60718C4.86442 7.55056 4.8224 7.48569 4.78994 7.40986C4.75857 7.33177 4.74219 7.24853 4.74219 7.15625C4.74219 7.06268 4.759 6.98354 4.78861 6.91357C4.8221 6.83441 4.86491 6.77188 4.91605 6.72074C4.97478 6.66202 5.0407 6.61764 5.1167 6.58548C5.18667 6.55588 5.2658 6.53906 5.35938 6.53906H10.5H11V6.03906V3.79688Z" fill="white" stroke="black"/>
</g>
<defs>
<filter id="filter0_d_104_4032" x="1" y="1" width="49.5391" height="17" filterUnits="userSpaceOnUse" color-interpolation-filters="sRGB">
<feFlood flood-opacity="0" result="BackgroundImageFix"/>
<feColorMatrix in="SourceAlpha" type="matrix" values="0 0 0 0 0 0 0 0 0 0 0 0 0 0 0 0 0 0 127 0" result="hardAlpha"/>
<feOffset dy="2"/>
<feComposite in2="hardAlpha" operator="out"/>
<feColorMatrix type="matrix" values="0 0 0 0 0 0 0 0 0 0 0 0 0 0 0 0 0 0 1 0"/>
<feBlend mode="normal" in2="BackgroundImageFix" result="effect1_dropShadow_104_4032"/>
<feBlend mode="normal" in="SourceGraphic" in2="effect1_dropShadow_104_4032" result="shape"/>
</filter>
</defs>
</svg>
