<svg width="13" height="12" viewBox="0 0 13 12" fill="none" xmlns="http://www.w3.org/2000/svg">
<path d="M9.20842 10.5V9.5C9.20842 8.96957 8.98014 8.46086 8.57381 8.08579C8.16748 7.71071 7.61638 7.5 7.04175 7.5H2.70841C2.13378 7.5 1.58268 7.71071 1.17635 8.08579C0.770021 8.46086 0.541748 8.96957 0.541748 9.5V10.5" stroke="black" stroke-linecap="round" stroke-linejoin="round"/>
<path d="M4.87492 5.5C6.07154 5.5 7.04159 4.60457 7.04159 3.5C7.04159 2.39543 6.07154 1.5 4.87492 1.5C3.6783 1.5 2.70825 2.39543 2.70825 3.5C2.70825 4.60457 3.6783 5.5 4.87492 5.5Z" stroke="black" stroke-linecap="round" stroke-linejoin="round"/>
<path d="M12.4583 10.4999V9.49994C12.4579 9.05681 12.2981 8.62633 12.004 8.2761C11.7099 7.92587 11.2981 7.67573 10.8333 7.56494" stroke="black" stroke-linecap="round" stroke-linejoin="round"/>
<path d="M8.66675 1.56494C9.13281 1.67509 9.54589 1.92529 9.84089 2.2761C10.1359 2.6269 10.296 3.05836 10.296 3.50244C10.296 3.94653 10.1359 4.37798 9.84089 4.72879C9.54589 5.07959 9.13281 5.32979 8.66675 5.43994" stroke="black" stroke-linecap="round" stroke-linejoin="round"/>
</svg>
