<svg width="24" height="24" viewBox="0 0 24 24" fill="none" xmlns="http://www.w3.org/2000/svg">
<path d="M18.5551 6.01055C17.3021 5.4369 15.9794 5.02994 14.6206 4.80005C14.4347 5.13243 14.2665 5.47441 14.1166 5.82455C12.6693 5.60645 11.1975 5.60645 9.75013 5.82455C9.60022 5.47444 9.43199 5.13247 9.24613 4.80005C7.88651 5.03188 6.56288 5.43981 5.30863 6.01355C2.81863 9.69755 2.14363 13.29 2.48113 16.8315C3.93934 17.9089 5.57149 18.7283 7.30663 19.254C7.69733 18.7286 8.04306 18.1711 8.34013 17.5875C7.77588 17.3768 7.23128 17.1168 6.71263 16.8105C6.84913 16.7115 6.98263 16.6095 7.11163 16.5105C8.62078 17.2203 10.2679 17.5882 11.9356 17.5882C13.6033 17.5882 15.2505 17.2203 16.7596 16.5105C16.8901 16.617 17.0236 16.719 17.1586 16.8105C16.639 17.1173 16.0934 17.3778 15.5281 17.589C15.8248 18.1723 16.1706 18.7293 16.5616 19.254C18.2983 18.7304 19.9317 17.9114 21.3901 16.833C21.7861 12.726 20.7136 9.16655 18.5551 6.01055ZM8.76763 14.6535C7.82713 14.6535 7.05013 13.8 7.05013 12.75C7.05013 11.7 7.80013 10.839 8.76463 10.839C9.72913 10.839 10.5001 11.7 10.4836 12.75C10.4671 13.8 9.72613 14.6535 8.76763 14.6535ZM15.1036 14.6535C14.1616 14.6535 13.3876 13.8 13.3876 12.75C13.3876 11.7 14.1376 10.839 15.1036 10.839C16.0696 10.839 16.8346 11.7 16.8181 12.75C16.8016 13.8 16.0621 14.6535 15.1036 14.6535Z" fill="white"/>
</svg>
