<svg width="16" height="16" viewBox="0 0 16 16" fill="none" xmlns="http://www.w3.org/2000/svg">
<path d="M4.66659 7.33337L7.33325 1.33337C7.86369 1.33337 8.37239 1.54409 8.74747 1.91916C9.12254 2.29423 9.33325 2.80294 9.33325 3.33337V6.00004H13.1066C13.2999 5.99785 13.4913 6.03771 13.6676 6.11685C13.844 6.19599 14.001 6.31253 14.1278 6.45838C14.2547 6.60424 14.3483 6.77592 14.4021 6.96154C14.456 7.14716 14.4689 7.34228 14.4399 7.53337L13.5199 13.5334C13.4717 13.8513 13.3102 14.1411 13.0652 14.3494C12.8202 14.5576 12.5081 14.6703 12.1866 14.6667H4.66659M4.66659 7.33337V14.6667M4.66659 7.33337H2.66659C2.31296 7.33337 1.97382 7.47385 1.72378 7.7239C1.47373 7.97395 1.33325 8.31308 1.33325 8.66671V13.3334C1.33325 13.687 1.47373 14.0261 1.72378 14.2762C1.97382 14.5262 2.31296 14.6667 2.66659 14.6667H4.66659" stroke="white" stroke-width="0.8" stroke-linecap="round" stroke-linejoin="round"/>
</svg>
