<svg width="15" height="15" viewBox="0 0 15 15" fill="none" xmlns="http://www.w3.org/2000/svg">
<path d="M4.33333 14.3333H2.33333C1.97971 14.3333 1.64057 14.1929 1.39052 13.9428C1.14048 13.6928 1 13.3536 1 13V8.33333C1 7.97971 1.14048 7.64057 1.39052 7.39052C1.64057 7.14048 1.97971 7 2.33333 7H4.33333" fill="white"/>
<path d="M9 5.66667V3C9 2.46957 8.78929 1.96086 8.41421 1.58579C8.03914 1.21071 7.53043 1 7 1L4.33333 7H2.33333C1.97971 7 1.64057 7.14048 1.39052 7.39052C1.14048 7.64057 1 7.97971 1 8.33333V13C1 13.3536 1.14048 13.6928 1.39052 13.9428C1.64057 14.1929 1.97971 14.3333 2.33333 14.3333H4.33333H11.8533C12.1749 14.337 12.4869 14.2243 12.7319 14.016C12.977 13.8077 13.1385 13.5179 13.1867 13.2L14.1067 7.2C14.1357 7.0089 14.1228 6.81379 14.0689 6.62817C14.015 6.44255 13.9214 6.27086 13.7946 6.12501C13.6677 5.97916 13.5107 5.86262 13.3344 5.78348C13.158 5.70434 12.9666 5.66448 12.7733 5.66667H9Z" fill="white"/>
<path d="M4.33333 14.3333H2.33333C1.97971 14.3333 1.64057 14.1929 1.39052 13.9428C1.14048 13.6928 1 13.3536 1 13V8.33333C1 7.97971 1.14048 7.64057 1.39052 7.39052C1.64057 7.14048 1.97971 7 2.33333 7H4.33333" stroke="white" stroke-width="0.8" stroke-linecap="round" stroke-linejoin="round"/>
<path d="M9 5.66667V3C9 2.46957 8.78929 1.96086 8.41421 1.58579C8.03914 1.21071 7.53043 1 7 1L4.33333 7H2.33333C1.97971 7 1.64057 7.14048 1.39052 7.39052C1.14048 7.64057 1 7.97971 1 8.33333V13C1 13.3536 1.14048 13.6928 1.39052 13.9428C1.64057 14.1929 1.97971 14.3333 2.33333 14.3333H4.33333H11.8533C12.1749 14.337 12.4869 14.2243 12.7319 14.016C12.977 13.8077 13.1385 13.5179 13.1867 13.2L14.1067 7.2C14.1357 7.0089 14.1228 6.81379 14.0689 6.62817C14.015 6.44255 13.9214 6.27086 13.7946 6.12501C13.6677 5.97916 13.5107 5.86262 13.3344 5.78348C13.158 5.70434 12.9666 5.66448 12.7733 5.66667H9Z" stroke="white" stroke-width="0.8" stroke-linecap="round" stroke-linejoin="round"/>
</svg>
